<svg width="118" height="40" viewBox="0 0 118 40" fill="none" xmlns="http://www.w3.org/2000/svg">
<path d="M56.6718 15.5205H58.1358V20.3386L62.2801 15.5205H64.0047L58.1358 22.1712V24.4906H56.6718V15.5205ZM60.481 19.1471L64.2285 24.4906H62.4661L59.5132 20.3514L60.481 19.1471Z" fill="#16123F"/>
<path d="M68.2861 15.5205H69.7878L73.585 24.4906H72.0216L68.9941 17.0454L65.9786 24.4906H64.452L68.2861 15.5205ZM66.3626 21.1332H71.5613V22.4146H66.3626V21.1332Z" fill="#16123F"/>
<path d="M83.3738 17.5969C83.0593 17.392 82.749 17.23 82.443 17.11C82.137 16.9909 81.8472 16.9052 81.5747 16.8537C81.3021 16.8023 81.0535 16.7766 80.8298 16.7766C80.3995 16.7766 80.0566 16.8623 79.7995 17.0329C79.5432 17.2035 79.4146 17.4512 79.4146 17.776C79.4146 18.0666 79.4995 18.3041 79.6692 18.4875C79.8389 18.6709 80.0618 18.8209 80.3395 18.9358C80.6164 19.0515 80.9224 19.1604 81.2575 19.2624C81.5927 19.3652 81.9252 19.4784 82.2561 19.6018C82.587 19.7261 82.893 19.8855 83.1741 20.0827C83.4553 20.2789 83.679 20.5292 83.8444 20.8327C84.0099 21.1361 84.0921 21.5184 84.0921 21.9795C84.0921 22.5093 83.9516 22.9687 83.6704 23.357C83.3893 23.7461 83.0027 24.047 82.5098 24.2604C82.0178 24.4739 81.453 24.581 80.8161 24.581C80.3609 24.581 79.9186 24.5193 79.4883 24.395C79.0581 24.2716 78.6552 24.1027 78.2789 23.8893C77.9026 23.6759 77.5657 23.4281 77.2675 23.1461L77.9 21.9033C78.1975 22.1853 78.5146 22.4244 78.8489 22.6207C79.1841 22.817 79.5226 22.967 79.8664 23.069C80.2092 23.1718 80.5341 23.2224 80.8401 23.2224C81.3527 23.2224 81.7521 23.1196 82.0375 22.9147C82.323 22.7098 82.4653 22.4235 82.4653 22.0558C82.4653 21.7567 82.3804 21.5158 82.2107 21.3315C82.041 21.1481 81.8181 20.9964 81.5404 20.8764C81.2635 20.7572 80.9575 20.6501 80.6224 20.5558C80.2872 20.4615 79.9521 20.3527 79.6169 20.2292C79.2818 20.1058 78.9758 19.9498 78.6989 19.7612C78.422 19.5735 78.1983 19.3301 78.0286 19.0309C77.8589 18.7318 77.774 18.3521 77.774 17.89C77.774 17.386 77.906 16.948 78.1709 16.5769C78.4358 16.2049 78.8052 15.9169 79.2818 15.712C79.7575 15.5072 80.3095 15.4043 80.9378 15.4043C81.5001 15.4043 82.0461 15.49 82.5758 15.6606C83.1056 15.832 83.5727 16.054 83.9781 16.3266L83.3704 17.5952L83.3738 17.5969Z" fill="#16123F"/>
<path d="M84.7762 15.5205H91.7372V16.8148H88.9823V24.4906H87.5183V16.8148H84.7762V15.5205Z" fill="#16123F"/>
<path d="M96.3527 15.4307C96.9981 15.4307 97.5999 15.5464 98.1579 15.777C98.7159 16.0075 99.2045 16.3324 99.6219 16.7507C100.039 17.169 100.367 17.6541 100.602 18.2053C100.838 18.7564 100.956 19.3522 100.956 19.9933C100.956 20.6345 100.839 21.2345 100.602 21.7933C100.367 22.3531 100.04 22.8425 99.6219 23.2608C99.2045 23.6791 98.7159 24.0065 98.1579 24.2414C97.5999 24.4762 96.9973 24.5937 96.3527 24.5937C95.7081 24.5937 95.1055 24.4762 94.5475 24.2414C93.9895 24.0065 93.5009 23.6799 93.0835 23.2608C92.6661 22.8425 92.3386 22.3531 92.1029 21.7933C91.8672 21.2336 91.7489 20.6336 91.7489 19.9933C91.7489 19.353 91.8672 18.7547 92.1029 18.1993C92.3386 17.6438 92.6652 17.1595 93.0835 16.7447C93.5009 16.3307 93.9895 16.0075 94.5475 15.777C95.1055 15.5464 95.7073 15.4307 96.3527 15.4307ZM96.3647 16.7121C95.9344 16.7121 95.5315 16.7953 95.1552 16.9624C94.779 17.1287 94.4455 17.3618 94.1567 17.661C93.8669 17.9601 93.6415 18.3081 93.4804 18.705C93.3192 19.1019 93.2386 19.5313 93.2386 19.9933C93.2386 20.4553 93.3209 20.8865 93.4864 21.2876C93.6518 21.6896 93.8789 22.0419 94.1687 22.3445C94.4584 22.6479 94.791 22.8854 95.1672 23.0559C95.5435 23.2265 95.943 23.3122 96.3647 23.3122C96.7864 23.3122 97.1859 23.2265 97.5622 23.0559C97.9384 22.8854 98.2676 22.6479 98.5487 22.3445C98.8299 22.041 99.051 21.6888 99.2122 21.2876C99.3733 20.8865 99.4539 20.4545 99.4539 19.9933C99.4539 19.5322 99.3733 19.1027 99.2122 18.705C99.051 18.3081 98.8299 17.9601 98.5487 17.661C98.2676 17.3618 97.9384 17.1295 97.5622 16.9624C97.1859 16.7961 96.7864 16.7121 96.3647 16.7121Z" fill="#16123F"/>
<path d="M106.043 15.5214C107.16 15.5214 108.022 15.7888 108.63 16.322C109.238 16.856 109.542 17.606 109.542 18.5711C109.542 19.5363 109.238 20.3634 108.63 20.9223C108.022 21.482 107.16 21.7615 106.043 21.7615H103.983V24.4906H102.519V15.5205H106.043V15.5214ZM106.043 20.468C106.713 20.468 107.232 20.3163 107.601 20.0129C107.968 19.7094 108.153 19.2423 108.153 18.6097C108.153 17.9771 107.968 17.5528 107.601 17.258C107.232 16.9631 106.713 16.8157 106.043 16.8157H103.983V20.468H106.043ZM106.093 21.1726H107.532L109.691 24.4915H108.028L106.093 21.1726Z" fill="#16123F"/>
<path d="M111.49 15.5205H117.694V16.8148H112.954V19.3391H117.198V20.6206H112.954V23.1963H117.842V24.4906H111.489V15.5205H111.49Z" fill="#16123F"/>
<path d="M30.095 17.0642C27.1721 16.0742 24.2501 15.0799 21.3298 14.0796C20.9209 13.9399 20.524 13.8413 20.1837 14.1945C19.8614 14.5296 19.9729 14.9145 20.104 15.2976C20.6355 16.8499 21.1592 18.4057 21.6889 19.9588C22.1723 21.3766 22.6635 22.7917 23.1444 24.2112C23.2704 24.5832 23.4795 24.8403 23.8969 24.8626C24.3392 24.8858 24.5904 24.6406 24.7378 24.2523C24.8012 24.0852 24.8681 23.9206 24.9341 23.7543C25.2778 22.8843 25.6207 22.0151 26.0055 21.0423C26.555 21.6148 27.0307 22.1231 27.521 22.6177C27.9899 23.0909 28.4073 23.1286 28.7785 22.754C29.1342 22.3957 29.0965 21.9294 28.649 21.4828C28.157 20.9908 27.6479 20.516 27.0873 19.9768C28.1716 19.5448 29.141 19.1377 30.1268 18.7742C30.5725 18.6105 30.9051 18.3945 30.8905 17.8794C30.8768 17.3771 30.5065 17.2039 30.095 17.0642ZM25.6335 18.8068C25.2264 18.95 24.9804 19.1977 24.8338 19.5928C24.587 20.2563 24.3169 20.9111 23.9964 21.7203C23.3269 19.7634 22.7055 17.9462 22.0463 16.0193C23.9844 16.6828 25.8007 17.3051 27.7413 17.9694C26.9596 18.2831 26.3056 18.5702 25.6344 18.806L25.6335 18.8068Z" fill="#16123F"/>
<path d="M23.2027 0.482251L21.5407 5.76748C21.485 5.94405 21.3067 6.05291 21.1241 6.02033L17.9698 5.46661C17.6741 5.41433 17.5609 5.05004 17.7752 4.83918L22.5916 0.107674C22.8659 -0.161473 23.3184 0.115388 23.2027 0.482251Z" fill="#16123F"/>
<path d="M40.9247 6.843C40.9247 6.62785 40.9264 6.4127 40.9067 6.19927C40.869 5.79812 40.6718 5.52983 40.2458 5.47926C39.9792 5.44754 39.7101 5.37812 39.4469 5.39526C37.6443 5.5144 35.828 5.54526 34.0451 5.80669C31.2302 6.21984 28.4805 6.93557 25.8524 8.06873C25.6098 8.1733 25.2567 8.15102 24.9961 8.06445C24.0815 7.76015 23.1987 7.36158 22.2798 7.07271C20.0083 6.3587 17.6889 5.83241 15.3145 5.62069C13.9251 5.4964 12.5279 5.42355 11.1333 5.41926C10.1459 5.41583 9.95215 5.68755 9.95215 6.65957C9.95215 12.8645 9.95215 19.0695 9.95215 25.2744C9.95215 25.4184 10.0284 25.5513 10.1527 25.6241L11.1933 26.2301C11.3493 26.321 11.5456 26.2087 11.5456 26.0279C11.5465 19.9283 11.5499 13.8288 11.5362 7.72929C11.5353 7.22357 11.6476 7.06929 12.1825 7.077C16.5085 7.13786 20.6632 7.99501 24.6404 9.69218C25.1933 9.9279 25.6681 9.92962 26.2244 9.69218C30.2694 7.96673 34.4977 7.10271 38.8966 7.09157C39.0004 7.09157 39.1041 7.10529 39.2446 7.11557V28.7442C37.7849 28.8376 36.3766 28.9173 34.97 29.0211C32.3857 29.2113 29.9128 29.9022 27.4947 30.8168C26.9736 31.0139 26.467 31.2445 25.9527 31.458C25.5696 31.6174 25.2421 31.5822 24.8418 31.4391C23.0281 30.7902 21.2246 30.0805 19.3637 29.6039C18.4037 29.3579 17.4326 29.1693 16.4528 29.039C16.3277 29.0219 16.2694 29.1908 16.3791 29.2542L20.0606 31.3997C21.5238 31.7905 22.9484 32.3254 24.3207 32.9905C25.1076 33.372 25.747 33.3591 26.5296 32.9991C30.6834 31.0919 35.0591 30.2811 39.6235 30.4868C40.6135 30.5314 40.9195 30.2476 40.9204 29.2516C40.923 25.4904 40.9212 21.7284 40.9212 17.9672H40.9238C40.9238 14.2591 40.9238 10.5519 40.9238 6.84386L40.9247 6.843Z" fill="#16123F"/>
<path d="M41.4929 13.2349V18.1062C41.4929 18.215 41.5409 18.3179 41.624 18.3882L46.2261 22.2762C46.3649 22.3937 46.3975 22.5934 46.3041 22.7494L36.2368 39.4356C36.0019 39.8239 36.5393 40.2113 36.8342 39.8659L52.2999 21.7285C52.4345 21.5708 52.413 21.3333 52.2519 21.2022L42.0954 12.9486C41.8537 12.7524 41.4929 12.9246 41.4929 13.2349Z" fill="#16123F"/>
<path d="M9.40375 16.295V22.6808C9.40375 22.794 9.35232 22.9002 9.26404 22.9705L7.57543 24.3077C7.37229 24.4688 7.39372 24.7834 7.61658 24.9154L24.6209 34.9664C24.7923 35.0676 24.8523 35.2879 24.7563 35.4627L23.0437 38.5768C22.9426 38.7611 22.7077 38.8236 22.5277 38.7139L0.177309 25.11C-0.028409 24.9848 -0.0609809 24.6994 0.110451 24.5306L8.77546 16.031C9.00946 15.8021 9.40375 15.9676 9.40375 16.295Z" fill="#16123F"/>
</svg>
